PathFileType	4	(X/Y/Z)	Patient4_TMGait_0pt3_03_right_17.trc.trc
DataRate	CameraRate	NumFrames	NumMarkers	Units	OrigDataRate	OrigDataStartFrame	OrigNumFrames
56.000000000000	56.000000000000	6	33	mm	56.000000000000	36	       141
Frame#	Time	Sacral			L.Shoulder			Chest			R.Shoulder			Neck			R.ASIS			L.ASIS			R.Thigh.Superior			R.Thigh.Lateral			R.Thigh.Inferior			R.Patella			L.Thigh.Superior			L.Thigh.Lateral			L.Thigh.Inferior			L.Patella			L.Shank.Superior			L.Shank.Lateral			L.Shank.Inferior			R.Shank.Superior			R.Shank.Lateral			R.Shank.Inferior			R.Heel			R.Midfoot.Superior			R.Midfoot.Lateral			R.Toe			L.Heel			L.Midfoot.Lateral			L.Midfoot.Superior			L.Toe			L.Elbow			L.Wrist			R.Elbow			R.Wrist			
		X1	Y1	Z1	X2	Y2	Z2	X3	Y3	Z3	X4	Y4	Z4	X5	Y5	Z5	X6	Y6	Z6	X7	Y7	Z7	X8	Y8	Z8	X9	Y9	Z9	X10	Y10	Z10	X11	Y11	Z11	X12	Y12	Z12	X13	Y13	Z13	X14	Y14	Z14	X15	Y15	Z15	X16	Y16	Z16	X17	Y17	Z17	X18	Y18	Z18	X19	Y19	Z19	X20	Y20	Z20	X21	Y21	Z21	X22	Y22	Z22	X23	Y23	Z23	X24	Y24	Z24	X25	Y25	Z25	X26	Y26	Z26	X27	Y27	Z27	X28	Y28	Z28	X29	Y29	Z29	X30	Y30	Z30	X31	Y31	Z31	X32	Y32	Z32	X33	Y33	Z33	

36	32.805000000000	537.521289001255	1001.213448880852	423.109068865730	754.628157170573	1429.658602467015	270.047617072117	832.249549699997	1353.291232168968	440.554844641866	731.766583197578	1428.620632967484	605.048319024818	726.242614415057	1488.048194638893	426.892585480719	760.054024988249	934.588370719670	557.065869442596	763.146574914012	956.246099464620	282.563813002599	822.060674148150	747.440198767655	522.250702422523	756.029620879214	631.108825199098	586.080956475870	836.451148532257	586.870315162073	503.599392273624	848.476423025133	499.345528778614	512.194953237991	778.848717712851	727.818502493639	301.429748895928	677.001400065157	625.070009306608	229.728555859382	748.102700923447	532.548665751206	289.434075554290	735.230399733282	454.413629776797	288.189549917967	676.893734755821	397.244837284157	276.189134117698	549.128842685412	332.500229694619	217.746601676605	552.245925683887	203.007813493767	273.978442507497	824.794356177098	407.567787477015	523.976276559643	763.132932675577	303.474187054804	595.429326606382	805.314758293454	208.114219497877	532.720706310031	674.983537287253	41.364620113019	520.773740485813	848.007053840437	97.350771819840	539.330509641940	765.274838275298	35.848236968377	587.473992999310	970.518335433129	48.989182056452	554.791799541255	376.293732870958	95.110849426945	303.172451889984	445.462030870711	69.597571564751	224.140877639059	542.780814706669	106.506096422885	249.304042190771	649.033401569915	34.278885229810	220.549763064688	785.516178068111	1085.090491977124	137.025748853248	1021.970995016647	986.443922934220	178.206356705898	629.718361141142	1094.180135514824	715.614138151949	723.243035720076	854.026670299127	756.790869459484	
37	32.822857142857	539.405850705159	1002.234932230709	429.114059498230	754.740824055935	1431.335206281100	274.809501233616	833.989560826364	1354.511047329382	444.401928524995	734.970795019721	1429.339764806442	610.059359693864	727.869827169863	1489.232701848323	432.145722671886	762.926638223104	935.735320395517	561.092332409212	763.987468058383	957.577981741591	286.386478949858	822.721431626922	746.749382522095	525.890650227230	755.404811587562	631.039651954441	589.212971333580	834.802733566486	586.152052504608	505.980165959687	845.845629985161	498.655558763422	513.874191097109	784.224927781528	730.444822226725	305.028075965218	685.492626509266	625.737021177552	233.078986632480	759.401249499208	534.238354311215	292.150360577157	747.446827155545	454.787722088527	289.698048120520	686.889725963306	398.154995903496	277.863608621877	556.831703915071	338.109104707695	219.565832508711	556.036759429098	208.063816576384	274.223129191138	821.647189892676	407.159656105458	525.413819285588	759.817354462703	303.100352374862	596.671180480273	800.873316894841	207.799507111514	533.141913765021	669.828816117795	41.352333156934	520.865099709771	842.879688658920	97.315330244904	539.394417154767	760.119119890960	35.919547027391	587.513026137777	965.421562694278	48.715537501979	554.795050149208	376.680331261566	108.487959084983	303.433970621753	443.964128713272	78.868151267659	224.354289246054	543.071017162567	109.926590067497	249.046503063570	643.944984060715	33.272102470272	220.644408436816	780.821664436512	1086.495613898133	140.912332597453	1013.894010823928	979.170613965405	182.379881725440	639.302016057679	1094.192429859591	724.385751667672	742.325858012243	858.124759542261	766.196771783065	
38	32.840714285714	541.102138999989	1003.030397813582	435.049030721084	754.576925071154	1432.639628888902	279.204161943712	835.600487595570	1355.498895902675	447.850942738885	738.202932703757	1429.966058838752	614.658887906703	729.465381095572	1490.189300606453	436.939127640607	765.578774978765	936.649594792279	565.007124349163	764.740035791686	958.781008366991	290.134044802731	823.281279058052	745.994911232011	529.399146063536	754.778049649668	630.858260895786	592.247161596945	833.206123526043	585.401766425917	508.309384324584	843.305283545593	497.912053678047	515.538244628086	789.872736316311	733.252581564697	308.826196803962	694.787686105402	626.433118611232	236.440522370268	771.499283603348	536.221225701713	295.167315765760	760.563734703051	455.453881418893	291.540069718557	697.883228853690	399.223383397636	279.747339235902	565.670213416746	344.039189770753	221.507344129059	560.766464696908	213.613041079259	274.695080689975	818.573832030962	406.678739453898	526.818265329445	756.549186938261	302.666754173099	597.853337223479	796.428905959097	207.427741860777	533.538375213272	664.613521448145	41.363565082617	520.938873074372	837.722875948407	97.257828772683	539.484557426037	754.909295986226	35.968986772707	587.530190007251	960.285255485673	48.331416955593	554.820240643041	378.177523046076	122.999514075208	303.915325226159	443.302023814101	89.273258001769	224.721234559496	544.024816259401	113.979324149923	249.012375051354	638.984064553410	32.227628645046	220.774521118910	775.844704414812	1087.471339117840	144.741395833034	1004.891598677422	970.670142429351	186.103346285823	649.246254676020	1094.403350208961	733.133069450808	761.757536555835	862.735245276124	774.711684839567	
39	32.858571428571	542.607973564574	1003.568385698656	440.904313721324	754.159079015227	1433.534577710688	283.232856743502	837.077772453278	1356.215929089072	450.913097705519	741.436285477146	1430.455762689625	618.838099651638	731.031553393144	1490.887113978768	441.264908377955	768.038748670022	937.300470485701	568.778069819488	765.385009275615	959.834529573795	293.802273270489	823.865322442830	745.220156785684	532.694026865162	754.363253928064	630.566152496453	595.130528070353	831.867690451535	584.638362016766	510.521792910877	841.112548174619	497.097871404922	517.132980793231	795.660445198316	736.218088239461	312.839480568888	704.686981789765	627.205362181738	239.836904331085	784.119744451634	538.527839434926	298.535362470195	774.309943953815	456.455508597051	293.786426576509	709.640162404020	400.490873381254	281.896375888664	575.440958587835	350.222835296591	223.649817973124	566.367713708684	219.572033650563	275.481579660762	815.764915350165	406.102021634874	528.138786716346	753.476837619696	302.184458911847	598.953747368640	792.069477775901	206.984640093307	533.887573921113	659.329537919343	41.396555522626	521.003414340812	832.535187814423	97.166493636035	539.581761092822	749.641286375910	36.000727326523	587.534519579346	955.106279471424	47.844508560402	554.862349439874	380.823405056477	138.265336851786	304.716667306828	443.580350696257	100.593539510455	225.324164039056	545.686855383157	118.657767525770	249.273891388539	634.365756073123	31.235262836268	220.942732332740	770.641307627947	1087.923525190019	148.644433202335	994.884438308422	960.923175106862	189.322483751087	659.524141895712	1094.725219591752	741.723083818333	781.459086646392	867.788953736465	782.248394675864	
40	32.876428571429	543.923531912715	1003.844376845010	446.666216827059	753.523890124670	1434.010499050317	286.907697227517	838.423895972131	1356.640891069274	453.609309626731	744.655690122150	1430.779452239193	622.603208690390	732.570738594997	1491.313202711886	445.133216129824	770.333978646844	937.673632189088	572.372106603700	765.871382850304	960.713583235024	297.377969731928	824.573325078048	744.455572231811	535.719160818691	754.316617734297	630.158604228347	597.815295204937	830.943558308453	583.870921747503	512.562944834734	839.467541196890	496.193399678583	518.608329070781	801.449030873677	739.321242046941	317.051949058193	714.955645817090	628.101892292937	243.280688551685	796.969553147886	541.179523404644	302.261586360914	788.401212724483	457.826769959831	296.458545312065	721.906490686055	401.993110071330	284.337536872066	585.905965675605	356.563036976294	226.069239368336	572.768405740133	225.811154164558	276.655244048806	813.362753879785	405.411173957588	529.329672932995	750.705692774082	301.663944002972	599.949633577272	787.863237027235	206.465237537453	534.173543074678	653.980916985450	41.448293657027	521.066028830606	827.318204243759	97.040804583952	539.670088524955	744.321554764012	36.020132081007	587.534050988056	949.887377868186	47.282463020679	554.915833164354	384.630241481252	153.768532700639	305.945441571186	444.906914532130	112.482676893163	226.251890439622	548.132726851424	123.891894186841	249.892816483992	630.403071359699	30.421196409753	221.154670488120	765.281121107381	1087.798790916709	152.737203837645	983.771307374690	949.946074401412	191.994646221242	670.076410167159	1095.076789904354	750.002235740281	801.342831034001	873.240412020780	788.735125165513	
41	32.894285714286	545.052729048413	1003.870987328510	452.315642004454	752.717004123837	1434.078760058208	290.251443750584	839.648117341150	1356.765824278119	455.969370572525	747.858142943656	1430.918647026529	625.976655263389	734.083628866848	1491.466514962983	448.572017115029	772.488623470205	937.766200541774	575.762017967757	766.124821950791	961.382848237428	300.843182861013	825.477858134943	743.715559601556	538.445186701913	754.734533482779	629.623571946572	600.260280412621	830.537602757750	583.098701681110	514.389926113643	838.505757226676	495.177142951631	519.919422743527	807.100899744453	742.537584237344	321.413203937470	725.336654385355	629.160259867563	246.767823014201	809.758544396910	544.178994095464	306.301838646735	802.556546479484	459.585924874068	299.520725822801	734.427532341531	403.750379036999	287.060700715278	596.812484108308	362.924974243021	228.827206882705	579.904187684047	232.148492234410	278.263769177020	811.460275908652	404.591308785160	530.351626465459	748.299262037356	301.113078199476	600.818008980482	783.857762779243	205.870829426875	534.385553221405	648.581010089856	41.516830849896	521.130880598102	822.077162191105	96.887009417405	539.738219341547	738.962827084769	36.032977760608	587.534562929375	944.635614249928	46.679167707306	554.975511633574	389.591452097011	168.867274037012	307.702744289955	447.395098256312	124.470440759546	227.588523403382	551.474849108947	129.537251842336	250.913928555362	627.509310465201	29.933657786401	221.418468220324	759.844217508030	1087.084377283883	157.105267297623	971.440084877284	937.810826206619	194.095887189703	680.819591807273	1095.381423606068	757.810434411225	821.315805408309	879.064253410294	794.112870544974	
